<svg width="28" height="28" viewBox="0 0 28 28" fill="none" xmlns="http://www.w3.org/2000/svg">
  <path d="M4.5 9c0-1.1.9-2 2-2h4.9c.4 0 .8.2 1 .6l.8 1.4H21c1.1 0 2 .9 2 2v9.8c0 1.1-.9 2-2 2h-12c-3.3 0-4.5-1.4-4.5-3.8V9z" fill="#FFDCCF" stroke="#B25C38" stroke-width="1.6" stroke-linejoin="round"/>
  <path d="M6.1 6h5c.4 0 .8.2 1 .6l.9 1.4H7c-.5 0-.9.1-1.3.3V6.6c0-.3.2-.6.4-.6z" fill="#B25C38"/>
  <path d="M7.8 10.4h11.4c1.1 0 2 .9 2 2v8.1c0 1.1-.9 2-2 2H9.5c-3.3 0-4.2-1.3-4.2-3.6V12c0-.9.7-1.6 1.6-1.6z" fill="#FFFFFF"/>
</svg>
